HIERARCHY
ROOT Hips
{
  OFFSET 352.181 89.6817 215.948
  CHANNELS 6 Xposition Yposition Zposition Zrotation Xrotation Yrotation
  JOINT RightUpLeg
  {
    OFFSET -9.28908 -1.54242 -0.003762
    CHANNELS 3 Zrotation Xrotation Yrotation
    JOINT RightLeg
    {
      OFFSET 0.175992 -41.9066 0.16442
      CHANNELS 3 Zrotation Xrotation Yrotation
      JOINT RightFoot
      {
        OFFSET -0.850518 -41.676 1.19357
        CHANNELS 3 Zrotation Xrotation Yrotation
        End Site
        {
          OFFSET 0 -7.69 17.5
        }
      }
    }
  }
  JOINT LeftUpLeg
  {
    OFFSET 9.35911 -1.62184 0.0934226
    CHANNELS 3 Zrotation Xrotation Yrotation
    JOINT LeftLeg
    {
      OFFSET 0.11037 -41.8771 -4.76722e-05
      CHANNELS 3 Zrotation Xrotation Yrotation
      JOINT LeftFoot
      {
        OFFSET 0.784832 -42.2153 -2.4698
        CHANNELS 3 Zrotation Xrotation Yrotation
        End Site
        {
          OFFSET 0 -7.69 17.5
        }
      }
    }
  }
  JOINT Spine
  {
    OFFSET -0.0264112 14.3118 0.141242
    CHANNELS 3 Zrotation Xrotation Yrotation
    JOINT Spine1
    {
      OFFSET -0.0608006 9.71827 0.0702426
      CHANNELS 3 Zrotation Xrotation Yrotation
      JOINT Spine2
      {
        OFFSET 0.040197 10.1251 -0.0199022
        CHANNELS 3 Zrotation Xrotation Yrotation
        JOINT Spine3
        {
          OFFSET -0.018884 9.71791 0.0127475
          CHANNELS 3 Zrotation Xrotation Yrotation
          JOINT Neck
          {
            OFFSET -0.169577 10.3664 -0.0885607
            CHANNELS 3 Zrotation Xrotation Yrotation
            JOINT Head
            {
              OFFSET -0.26372 9.48406 0.127016
              CHANNELS 3 Zrotation Xrotation Yrotation
              End Site
              {
                OFFSET 0 15.95 0
              }
            }
          }
          JOINT RightShoulder
          {
            OFFSET -3.21308 6.8767 -0.0450237
            CHANNELS 3 Zrotation Xrotation Yrotation
            JOINT RightArm
            {
              OFFSET -12.7762 -0.0188046 -0.0629949
              CHANNELS 3 Zrotation Xrotation Yrotation
              JOINT RightForeArm
              {
                OFFSET -26.5383 -0.000218244 -0.103623
                CHANNELS 3 Zrotation Xrotation Yrotation
                JOINT RightHand
                {
                  OFFSET -25.8669 -0.047899 -0.0603739
                  CHANNELS 3 Zrotation Xrotation Yrotation
                  JOINT RightHandThumb1
                  {
                    OFFSET -2.48905 0.190105 3.12053
                    CHANNELS 3 Zrotation Xrotation Yrotation
                    JOINT RightHandThumb2
                    {
                      OFFSET -3.68274 0 0
                      CHANNELS 3 Zrotation Xrotation Yrotation
                      JOINT RightHandThumb3
                      {
                        OFFSET -2.55832 0 0
                        CHANNELS 3 Zrotation Xrotation Yrotation
                        End Site
                        {
                          OFFSET -2.194 0 0
                        }
                      }
                    }
                  }
                  JOINT RightInHandIndex
                  {
                    OFFSET -3.22368 0.508421 1.97842
                    CHANNELS 3 Zrotation Xrotation Yrotation
                    JOINT RightHandIndex1
                    {
                      OFFSET -5.21684 -0.091368 0.999158
                      CHANNELS 3 Zrotation Xrotation Yrotation
                      JOINT RightHandIndex2
                      {
                        OFFSET -3.61937 0 0
                        CHANNELS 3 Zrotation Xrotation Yrotation
                        JOINT RightHandIndex3
                        {
                          OFFSET -2.0521 0 0
                          CHANNELS 3 Zrotation Xrotation Yrotation
                          End Site
                          {
                            OFFSET -1.805 0 0
                          }
                        }
                      }
                    }
                  }
                  JOINT RightInHandMiddle
                  {
                    OFFSET -3.38211 0.517263 0.756737
                    CHANNELS 3 Zrotation Xrotation Yrotation
                    JOINT RightHandMiddle1
                    {
                      OFFSET -5.17411 -0.084 0.313895
                      CHANNELS 3 Zrotation Xrotation Yrotation
                      JOINT RightHandMiddle2
                      {
                        OFFSET -3.94947 0 0
                        CHANNELS 3 Zrotation Xrotation Yrotation
                        JOINT RightHandMiddle3
                        {
                          OFFSET -2.47579 0 0
                          CHANNELS 3 Zrotation Xrotation Yrotation
                          End Site
                          {
                            OFFSET -1.975 0 0
                          }
                        }
                      }
                    }
                  }
                  JOINT RightInHandRing
                  {
                    OFFSET -3.36516 0.537895 -0.128947
                    CHANNELS 3 Zrotation Xrotation Yrotation
                    JOINT RightHandRing1
                    {
                      OFFSET -4.63474 -0.022105 -0.478947
                      CHANNELS 3 Zrotation Xrotation Yrotation
                      JOINT RightHandRing2
                      {
                        OFFSET -3.44238 0 0
                        CHANNELS 3 Zrotation Xrotation Yrotation
                        JOINT RightHandRing3
                        {
                          OFFSET -2.3881 0 0
                          CHANNELS 3 Zrotation Xrotation Yrotation
                          End Site
                          {
                            OFFSET -1.857 0 0
                          }
                        }
                      }
                    }
                  }
                  JOINT RightInHandPinky
                  {
                    OFFSET -3.16105 0.469368 -1.20179
                    CHANNELS 3 Zrotation Xrotation Yrotation
                    JOINT RightHandPinky1
                    {
                      OFFSET -4.14105 -0.022105 -1.09053
                      CHANNELS 3 Zrotation Xrotation Yrotation
                      JOINT RightHandPinky2
                      {
                        OFFSET -2.75653 0 0
                        CHANNELS 3 Zrotation Xrotation Yrotation
                        JOINT RightHandPinky3
                        {
                          OFFSET -1.74189 0 0
                          CHANNELS 3 Zrotation Xrotation Yrotation
                          End Site
                          {
                            OFFSET -1.645 0 0
                          }
                        }
                      }
                    }
                  }
                }
              }
            }
          }
          JOINT LeftShoulder
          {
            OFFSET 3.21013 6.92813 0.031381
            CHANNELS 3 Zrotation Xrotation Yrotation
            JOINT LeftArm
            {
              OFFSET 12.8361 0.00272676 -0.00293476
              CHANNELS 3 Zrotation Xrotation Yrotation
              JOINT LeftForeArm
              {
                OFFSET 26.5005 -0.02636 0.00399578
                CHANNELS 3 Zrotation Xrotation Yrotation
                JOINT LeftHand
                {
                  OFFSET 25.9821 -0.0367196 0.00246136
                  CHANNELS 3 Zrotation Xrotation Yrotation
                  JOINT LeftHandThumb1
                  {
                    OFFSET 2.48905 0.190105 3.12053
                    CHANNELS 3 Zrotation Xrotation Yrotation
                    JOINT LeftHandThumb2
                    {
                      OFFSET 3.68274 0 0
                      CHANNELS 3 Zrotation Xrotation Yrotation
                      JOINT LeftHandThumb3
                      {
                        OFFSET 2.55832 0 0
                        CHANNELS 3 Zrotation Xrotation Yrotation
                        End Site
                        {
                          OFFSET 2.194 0 0
                        }
                      }
                    }
                  }
                  JOINT LeftInHandIndex
                  {
                    OFFSET 3.22368 0.508421 1.97842
                    CHANNELS 3 Zrotation Xrotation Yrotation
                    JOINT LeftHandIndex1
                    {
                      OFFSET 5.21684 -0.091368 0.999158
                      CHANNELS 3 Zrotation Xrotation Yrotation
                      JOINT LeftHandIndex2
                      {
                        OFFSET 3.61937 0 0
                        CHANNELS 3 Zrotation Xrotation Yrotation
                        JOINT LeftHandIndex3
                        {
                          OFFSET 2.0521 0 0
                          CHANNELS 3 Zrotation Xrotation Yrotation
                          End Site
                          {
                            OFFSET 1.805 0 0
                          }
                        }
                      }
                    }
                  }
                  JOINT LeftInHandMiddle
                  {
                    OFFSET 3.38211 0.517263 0.756737
                    CHANNELS 3 Zrotation Xrotation Yrotation
                    JOINT LeftHandMiddle1
                    {
                      OFFSET 5.17411 -0.084 0.313895
                      CHANNELS 3 Zrotation Xrotation Yrotation
                      JOINT LeftHandMiddle2
                      {
                        OFFSET 3.94947 0 0
                        CHANNELS 3 Zrotation Xrotation Yrotation
                        JOINT LeftHandMiddle3
                        {
                          OFFSET 2.47579 0 0
                          CHANNELS 3 Zrotation Xrotation Yrotation
                          End Site
                          {
                            OFFSET 1.975 0 0
                          }
                        }
                      }
                    }
                  }
                  JOINT LeftInHandRing
                  {
                    OFFSET 3.36516 0.537895 -0.128947
                    CHANNELS 3 Zrotation Xrotation Yrotation
                    JOINT LeftHandRing1
                    {
                      OFFSET 4.63474 -0.022105 -0.478947
                      CHANNELS 3 Zrotation Xrotation Yrotation
                      JOINT LeftHandRing2
                      {
                        OFFSET 3.44238 0 0
                        CHANNELS 3 Zrotation Xrotation Yrotation
                        JOINT LeftHandRing3
                        {
                          OFFSET 2.3881 0 0
                          CHANNELS 3 Zrotation Xrotation Yrotation
                          End Site
                          {
                            OFFSET 1.857 0 0
                          }
                        }
                      }
                    }
                  }
                  JOINT LeftInHandPinky
                  {
                    OFFSET 3.16105 0.469368 -1.20179
                    CHANNELS 3 Zrotation Xrotation Yrotation
                    JOINT LeftHandPinky1
                    {
                      OFFSET 4.14105 -0.022105 -1.09053
                      CHANNELS 3 Zrotation Xrotation Yrotation
                      JOINT LeftHandPinky2
                      {
                        OFFSET 2.75653 0 0
                        CHANNELS 3 Zrotation Xrotation Yrotation
                        JOINT LeftHandPinky3
                        {
                          OFFSET 1.74189 0 0
                          CHANNELS 3 Zrotation Xrotation Yrotation
                          End Site
                          {
                            OFFSET 1.645 0 0
                          }
                        }
                      }
                    }
                  }
                }
              }
            }
          }
        }
      }
    }
  }
}
MOTION
Frames: 3
Frame Time: 0.00833333
3.000075976962946811e+02 2.019515160256887994e-03 -3.377802484797742377e-03 1.202514950154709786e-02 4.615083089121863047e-02 9.296590080295630276e-02 -2.350952556029281271e-01 1.524610336620047489e-02 -2.976908225287121512e-01 6.442992189523603919e-02 5.024215428712210801e-02 -1.355880816657400179e-01 -1.621300687331542201e-02 -1.276355990791151057e-02 1.532330186987694576e-01 -9.859459777402820868e-02 -8.051902011712189222e-02 -1.785107768824222008e-01 5.734048621564823839e-02 -3.719009983397040392e-02 -3.352856784167734111e-02 -1.751766253272583548e-02 5.406359545691724611e-02 4.613605337286976610e-02 1.194329668619209354e-02 3.175589512044579843e-02 -1.064710359803145712e-01 1.356325360121299990e-03 5.794348115039168676e-03 -2.869430150492847595e-02 2.228912706487879477e-03 8.841147446467816431e-03 -4.492633688092594058e-02 -4.580389348111037207e-03 -5.301546045491527075e-03 1.331626765020286346e-02 -4.099815476783567197e-03 -6.784367116036758676e-03 1.763706400544378522e-02 -7.435491067744592897e-02 -1.000207622896587684e-01 2.373287918943073338e-01 -4.486963832296671228e-02 -3.252658147562698665e-01 1.351574007156640667e-01 5.627962387618394846e-01 -2.444794808463527924e-01 -5.789149901646841734e-01 -3.159183704100825274e+00 1.420683531651091513e+00 -3.352192169510405328e+00 5.914048364921225404e-02 1.263838758423484199e-02 -2.252155791407842167e-01 0.000000000000000000e+00 0.000000000000000000e+00 0.000000000000000000e+00 -7.077337619519010894e-14 1.659056682530499521e-15 0.000000000000000000e+00 -1.502249425980233443e-14 -5.646888600443604093e-15 0.000000000000000000e+00 1.608821673929815000e-15 -1.618928021751838422e-15 7.052083680737447221e-16 0.000000000000000000e+00 0.000000000000000000e+00 0.000000000000000000e+00 0.000000000000000000e+00 2.330443085769763663e-14 8.593096097627077698e-14 0.000000000000000000e+00 2.149485513791788295e-15 5.673744082674840199e-15 1.608821673929815000e-15 -1.618928021751838422e-15 7.052083680737447221e-16 0.000000000000000000e+00 1.371017487831076244e-15 1.161889002577824180e-14 0.000000000000000000e+00 3.413837771243324737e-15 1.704556260098881304e-14 0.000000000000000000e+00 4.717604824625234962e-15 -5.325094698856043672e-16 1.608821673929815000e-15 -1.618928021751838422e-15 7.052083680737447221e-16 0.000000000000000000e+00 0.000000000000000000e+00 0.000000000000000000e+00 0.000000000000000000e+00 -8.271834079309180510e-15 -1.455527601960695326e-14 0.000000000000000000e+00 5.679169939203259316e-16 -2.701192331593067515e-15 1.608821673929815000e-15 -1.618928021751838422e-15 7.052083680737447221e-16 0.000000000000000000e+00 0.000000000000000000e+00 0.000000000000000000e+00 0.000000000000000000e+00 2.325387059041664007e-16 -1.476353156077569011e-14 0.000000000000000000e+00 -6.773474635310393051e-15 4.326706218020937654e-15 -1.713050078493044415e-01 1.757255143268637854e-01 7.372674981512616910e-01 3.290497452735481887e-01 1.833179141324918146e-02 -6.847113409331643252e-01 8.171886168113664528e-01 -3.094006870111865926e+00 1.115270515650462979e+00 5.706993423485015038e-01 2.190412024325161244e+00 7.606124019436467654e-01 0.000000000000000000e+00 0.000000000000000000e+00 0.000000000000000000e+00 -1.913975765115137370e-15 8.017489849825070954e-15 0.000000000000000000e+00 -1.262035574301786806e-15 5.376035425560819876e-15 0.000000000000000000e+00 5.529824113861461157e-15 -3.878262618222140583e-15 -2.204784401013049555e-15 0.000000000000000000e+00 0.000000000000000000e+00 0.000000000000000000e+00 0.000000000000000000e+00 2.854986047034584485e-15 -8.005788642109399585e-15 0.000000000000000000e+00 1.396331815558499342e-15 -5.582820558819496638e-15 5.529824113861461157e-15 -3.878262618222140583e-15 -2.204784401013049555e-15 0.000000000000000000e+00 1.582066796622776096e-15 -5.160787427882840567e-15 0.000000000000000000e+00 4.873889365429961653e-15 -1.183540272658677487e-14 0.000000000000000000e+00 1.965998878578531667e-16 -9.058401214545475317e-15 5.529824113861461157e-15 -3.878262618222140583e-15 -2.204784401013049555e-15 0.000000000000000000e+00 0.000000000000000000e+00 0.000000000000000000e+00 0.000000000000000000e+00 2.541626007105790797e-16 -1.307092007114816791e-14 0.000000000000000000e+00 3.252794784823266536e-16 -1.369955577005736958e-14 5.529824113861461157e-15 -3.878262618222140583e-15 -2.204784401013049555e-15 0.000000000000000000e+00 0.000000000000000000e+00 0.000000000000000000e+00 0.000000000000000000e+00 2.618208117825301332e-15 -6.291687418159708161e-15 0.000000000000000000e+00 3.379096259925533016e-15 -2.521278201877241398e-15
2.999998176884391796e+02 1.337662477202334168e-03 -7.947559758947442959e-03 1.863751424170434490e-02 3.980877717882733841e-02 8.091570709285281215e-02 -2.021019103048269094e-01 7.424843196380269232e-03 -2.700435867780353605e-01 4.613320912284376435e-02 3.713403434080192467e-02 -7.711765047060691047e-02 -1.674297269426683332e-02 -7.188899719160532671e-03 1.067638663458901904e-01 -7.367654565290381041e-02 -6.679049588582804120e-02 -1.423727472480426359e-01 3.150522716944612056e-02 -2.509677516817754653e-02 -1.396649659143999259e-02 -1.704222580969340026e-02 3.407292744318820427e-02 2.469496399103181944e-02 9.787500351861048303e-03 9.305088989214520614e-03 -9.006351200768206167e-02 8.110609230339182367e-04 1.339385813474645729e-03 -2.343954680309597027e-02 1.449930625151301051e-03 2.333991029316208419e-03 -3.801916085610538426e-02 -5.461072791582804488e-03 -5.682521303692987698e-03 1.355266487577738363e-02 -4.714387588843432786e-03 -6.218453392689096172e-03 1.395501001505321942e-02 -9.062136541536845724e-02 -9.518453435278628749e-02 2.581762896309399702e-01 -4.466255869921710586e-02 -2.292504914585476450e-01 9.288667249980987750e-02 5.664128537288293241e-01 -3.134693274156551968e-01 -5.202316354018702294e-01 -2.537372519765637158e+00 1.233095382750416746e+00 -2.682646941523612494e+00 1.585684512813020572e-02 -2.639239466459948266e-02 -2.522207720121508179e-01 0.000000000000000000e+00 0.000000000000000000e+00 0.000000000000000000e+00 -2.890502927539250837e-14 -1.969827242458886942e-15 0.000000000000000000e+00 -4.239813268391041629e-15 -4.405174109634266532e-15 0.000000000000000000e+00 2.516324358747484360e-15 -2.271670575268199778e-17 2.614188630116521693e-15 0.000000000000000000e+00 0.000000000000000000e+00 0.000000000000000000e+00 0.000000000000000000e+00 2.221302563887207915e-14 7.792476892532838672e-14 0.000000000000000000e+00 1.360992564665552297e-16 1.122789038277290548e-14 2.516324358747484360e-15 -2.271670575268199778e-17 2.614188630116521693e-15 0.000000000000000000e+00 3.981392567923135253e-15 1.288075229307514201e-14 0.000000000000000000e+00 2.660292738149796151e-15 1.741241015282370399e-14 0.000000000000000000e+00 4.094912538799703611e-15 6.847193322039331789e-15 2.516324358747484360e-15 -2.271670575268199778e-17 2.614188630116521693e-15 0.000000000000000000e+00 0.000000000000000000e+00 0.000000000000000000e+00 0.000000000000000000e+00 -1.018566275508455270e-14 -1.938617403998765993e-14 0.000000000000000000e+00 7.587264634122605932e-16 2.489670709466728012e-15 2.516324358747484360e-15 -2.271670575268199778e-17 2.614188630116521693e-15 0.000000000000000000e+00 0.000000000000000000e+00 0.000000000000000000e+00 0.000000000000000000e+00 -1.167997474564984338e-15 -1.455346936458177860e-14 0.000000000000000000e+00 -5.177219484461116727e-15 8.927802728777758577e-15 -1.427630251173185871e-01 1.902443729909449599e-01 7.059959996542967131e-01 5.582283764324530440e-01 5.293469005377022391e-02 -8.564186649420770792e-01 4.427936290626359739e-01 -2.016907462097916603e+00 7.100230663223916494e-01 3.164525321672397862e-01 1.231478097802100491e+00 4.359310416870724181e-01 0.000000000000000000e+00 0.000000000000000000e+00 0.000000000000000000e+00 -2.193661352209268652e-16 7.519723481759710452e-15 0.000000000000000000e+00 4.319755395164176498e-16 4.554488168378331451e-15 0.000000000000000000e+00 1.784312913634497417e-15 -2.056818616420321592e-15 -1.483080539701653528e-15 0.000000000000000000e+00 0.000000000000000000e+00 0.000000000000000000e+00 0.000000000000000000e+00 5.073535119218790545e-16 -6.529304200653716261e-15 0.000000000000000000e+00 -6.209473101513298042e-16 -3.307071457496051799e-15 1.784312913634497417e-15 -2.056818616420321592e-15 -1.483080539701653528e-15 0.000000000000000000e+00 5.172677172074342871e-15 -4.770376718678693306e-15 0.000000000000000000e+00 3.055560883498268110e-15 -1.013995291573326642e-14 0.000000000000000000e+00 1.709691841378952768e-15 -3.431362204954239960e-15 1.784312913634497417e-15 -2.056818616420321592e-15 -1.483080539701653528e-15 0.000000000000000000e+00 0.000000000000000000e+00 0.000000000000000000e+00 0.000000000000000000e+00 4.367756143408136481e-16 -9.939800862786559008e-15 0.000000000000000000e+00 1.297928532272240512e-15 -1.184880517138815087e-14 1.784312913634497417e-15 -2.056818616420321592e-15 -1.483080539701653528e-15 0.000000000000000000e+00 0.000000000000000000e+00 0.000000000000000000e+00 0.000000000000000000e+00 2.560808035232616002e-15 -7.707596172129742958e-15 0.000000000000000000e+00 1.980366701680579880e-15 -3.356006022243832215e-15
2.999950511970932325e+02 7.757212080783570029e-04 -9.667767203338624438e-03 2.011915997764887262e-02 2.336816805657178017e-02 6.021780573512210827e-02 -1.513084735932925806e-01 3.204235261853313928e-03 -2.109086107032812907e-01 2.120431367346659740e-02 1.103125340294641536e-02 7.420393072696327211e-03 -1.429187494407640688e-02 6.979215159225926265e-03 2.989341432731544915e-02 -4.635458358141389401e-02 -4.153277104741816966e-02 -9.189420061478205393e-02 -3.580338204473311296e-03 -4.264053177430126434e-03 1.817432208073977568e-02 -1.176042567670032395e-02 5.438400754373950811e-03 -8.827645456935592078e-03 1.582447298678299821e-02 -1.613752488151705758e-02 -6.265525178514316784e-02 2.370463016754493796e-03 -4.428928292777626306e-03 -1.521843776867237534e-02 4.008813764008509195e-03 -6.485324556962900056e-03 -2.530437624672078611e-02 -7.245340002301453586e-03 -5.021643604167121827e-03 1.317069445969461065e-02 -6.370937582705580964e-03 -4.882587300850360114e-03 1.085989842943014400e-02 -1.221140863986746594e-01 -6.638202320712048576e-02 2.573077903677478129e-01 -4.555428830392788814e-02 -6.375018832764782484e-02 2.378806316559193765e-02 7.623021520117180261e-01 -4.943624024981659315e-01 -5.808874600007705169e-01 -1.481230848337577344e+00 1.200651341097663138e+00 -1.460477100225064495e+00 -3.457000859011024468e-02 -4.295320185379285227e-02 -2.451419301072885748e-01 0.000000000000000000e+00 0.000000000000000000e+00 0.000000000000000000e+00 2.898844487220698872e-14 -6.331374916603754293e-15 0.000000000000000000e+00 3.403579376426786384e-15 -2.106656341270397051e-15 0.000000000000000000e+00 3.528572855496020693e-15 1.695419780176486611e-15 4.842781674842831169e-15 0.000000000000000000e+00 0.000000000000000000e+00 0.000000000000000000e+00 0.000000000000000000e+00 2.280881416967136054e-14 7.761734606626662549e-14 0.000000000000000000e+00 -2.143415266252879632e-15 1.544269678488682809e-14 3.528572855496020693e-15 1.695419780176486611e-15 4.842781674842831169e-15 0.000000000000000000e+00 5.864089868299135644e-15 1.327169282271244576e-14 0.000000000000000000e+00 2.443560192224283821e-15 1.984935499421932636e-14 0.000000000000000000e+00 2.187614356218693530e-15 1.208983354744422834e-14 3.528572855496020693e-15 1.695419780176486611e-15 4.842781674842831169e-15 0.000000000000000000e+00 0.000000000000000000e+00 0.000000000000000000e+00 0.000000000000000000e+00 -1.144022391935509086e-14 -2.004464767539276995e-14 0.000000000000000000e+00 1.317424840272732224e-15 7.313630918256728150e-15 3.528572855496020693e-15 1.695419780176486611e-15 4.842781674842831169e-15 0.000000000000000000e+00 0.000000000000000000e+00 0.000000000000000000e+00 0.000000000000000000e+00 -3.766789561550385313e-15 -1.101310779781367437e-14 0.000000000000000000e+00 -1.920144557185567188e-15 1.246719286525687286e-14 -9.618704306173719853e-02 2.079434831009810414e-01 6.177302328669731502e-01 8.715456599926441061e-01 1.181372666894395379e-01 -1.067884338455087567e+00 -1.520923497945410874e-01 -1.246357093697636476e-01 6.313018627541075456e-02 -1.110226721840581326e-01 -2.813943129828345158e-01 -8.370591734624896474e-02 0.000000000000000000e+00 0.000000000000000000e+00 0.000000000000000000e+00 2.118868090506564272e-15 4.599823711983167907e-15 0.000000000000000000e+00 2.280067981813801413e-15 3.519492806154212181e-15 0.000000000000000000e+00 -2.305759205421125866e-15 8.084186302114096738e-16 1.147237098476239146e-16 0.000000000000000000e+00 0.000000000000000000e+00 0.000000000000000000e+00 0.000000000000000000e+00 -1.964912256048847176e-15 -4.913859529945013855e-15 0.000000000000000000e+00 -3.185219168849654105e-15 -1.939789678305049485e-15 -2.305759205421125866e-15 8.084186302114096738e-16 1.147237098476239146e-16 0.000000000000000000e+00 8.997157765919432427e-15 -3.555672179436321070e-15 0.000000000000000000e+00 -1.529311796853686573e-16 -6.822680925361069222e-15 0.000000000000000000e+00 3.133551539177559185e-15 4.122029424129912999e-15 -2.305759205421125866e-15 8.084186302114096738e-16 1.147237098476239146e-16 0.000000000000000000e+00 0.000000000000000000e+00 0.000000000000000000e+00 0.000000000000000000e+00 1.043562226982056347e-15 -4.950533317276239008e-15 0.000000000000000000e+00 2.558300083250711752e-15 -7.435898419612566234e-15 -2.305759205421125866e-15 8.084186302114096738e-16 1.147237098476239146e-16 0.000000000000000000e+00 0.000000000000000000e+00 0.000000000000000000e+00 0.000000000000000000e+00 1.828437821745632219e-15 -7.970013018279704754e-15 0.000000000000000000e+00 -7.298828422513977043e-16 -4.654994650634595493e-15
